# xmcd
#
# Track frame offsets: 
#        188
#        16373
#        48480
#
# Disc length: 1070 seconds
#
# Revision: 0
# Processed by: cddbd v1.5.2PL0 Copyright (c) Steve Scherf et al.
# Submitted via: ExactAudioCopy v1.0b1
#
DISCID=1d042c03
DTITLE=Bass Bumpers - Good Fun CDM
DYEAR=1994
DGENRE=Eurodance
TTITLE0=Good Fun (7'' Radio Mix)
TTITLE1=Good Fun (12'' Power Mix)
TTITLE2=Good Fun (Hard Attack Mix)
EXTD=
EXTT0=
EXTT1=
EXTT2=
PLAYORDER=
